<?xml version="1.0" standalone="no"?>
<!DOCTYPE svg PUBLIC "-//W3C//DTD SVG 20010904//EN"
 "http://www.w3.org/TR/2001/REC-SVG-20010904/DTD/svg10.dtd">
<svg version="1.0" xmlns="http://www.w3.org/2000/svg"
 width="120.000000pt" height="50.000000pt" viewBox="0 0 120.000000 50.000000"
 preserveAspectRatio="xMidYMid meet">
<metadata>
Created by potrace 1.16, written by Peter Selinger 2001-2019
</metadata>
<g transform="translate(0.000000,50.000000) scale(0.100000,-0.100000)"
fill="#d64801" stroke="none">
<path d="M493 470 c-151 -17 -261 -54 -133 -45 44 3 67 2 56 -3 -40 -17 4 -23
90 -11 93 12 170 8 274 -16 36 -8 82 -17 102 -20 l38 -6 -3 -49 c-4 -52 -30
-93 -69 -106 -31 -10 -10 -23 30 -18 30 4 23 -1 -38 -27 -72 -31 -80 -32 -220
-33 -122 0 -157 3 -224 22 -87 25 -132 46 -81 38 17 -2 40 -7 53 -11 33 -11
27 11 -8 25 -33 14 -80 64 -80 85 0 7 12 28 27 45 l27 32 -47 -3 c-33 -3 -47
0 -47 8 0 17 -21 16 -56 -2 -16 -8 -42 -15 -59 -15 -16 0 -37 -5 -45 -10 -12
-7 -6 -13 25 -27 39 -17 39 -17 13 -21 -35 -4 -36 -20 -3 -28 29 -7 24 -24 -8
-25 -15 0 -4 -8 32 -25 29 -13 59 -24 66 -24 8 0 36 -11 63 -25 87 -44 173
-59 332 -59 159 0 245 15 332 59 27 14 55 25 63 25 7 0 37 11 66 24 36 17 47
25 32 25 -32 1 -37 18 -8 25 33 8 32 24 -2 28 -27 4 -27 4 12 21 31 14 37 20
25 27 -8 5 -27 10 -43 10 -15 0 -64 18 -110 39 -128 61 -313 89 -474 71z"/>
<path d="M260 399 c0 -5 21 -9 48 -9 31 0 55 -7 72 -20 19 -15 43 -20 100 -22
l75 -1 -65 -7 -65 -6 64 -5 c82 -5 94 -26 19 -32 l-53 -3 57 -2 c34 -1 58 -7
61 -14 4 -10 7 -10 18 0 17 16 66 16 72 0 3 -10 7 -10 18 -1 8 6 37 13 64 16
l50 3 -53 2 c-74 3 -64 25 14 33 l59 5 -60 5 -60 5 78 2 c42 1 77 0 77 -3 0
-3 -12 -23 -26 -45 l-27 -40 -167 0 -167 0 -46 51 c-59 65 -82 55 -26 -11 32
-38 39 -52 31 -66 -7 -12 -6 -24 2 -38 16 -30 27 -36 68 -36 46 0 68 8 68 26
0 10 14 14 53 14 41 0 55 -4 65 -20 9 -15 23 -20 53 -20 54 0 85 16 68 36 -9
11 -46 14 -180 14 -93 0 -169 4 -169 8 0 27 30 32 201 32 l177 0 30 47 c17 26
29 51 26 55 -3 4 -106 8 -228 8 -202 0 -226 2 -247 19 -26 19 -149 36 -149 20z"/>
</g>
</svg>
